<?xml version="1.0" encoding="UTF-8" standalone="no"?>
<!-- Created with Inkscape (http://www.inkscape.org/) -->

<svg
   xmlns:dc="http://purl.org/dc/elements/1.1/"
   xmlns:cc="http://creativecommons.org/ns#"
   xmlns:rdf="http://www.w3.org/1999/02/22-rdf-syntax-ns#"
   xmlns:svg="http://www.w3.org/2000/svg"
   xmlns="http://www.w3.org/2000/svg"
   xmlns:xlink="http://www.w3.org/1999/xlink"
   version="1.1"
   width="500"
   height="500"
   id="svg2">
  <defs
     id="defs4">
    <filter
       color-interpolation-filters="sRGB"
       id="filter3837">
      <feGaussianBlur
         id="feGaussianBlur3839"
         stdDeviation="11.1877349854" />
    </filter>
  </defs>
  <metadata
     id="metadata7">
    <rdf:RDF>
      <cc:Work
         rdf:about="">
        <dc:format>image/svg+xml</dc:format>
        <dc:type
           rdf:resource="http://purl.org/dc/dcmitype/StillImage" />
        <dc:title></dc:title>
      </cc:Work>
    </rdf:RDF>
  </metadata>
  <rect
     width="500"
     height="500"
     rx="55"
     ry="55"
     x="-1.0214052e-014"
     y="1.8579242e-014"
     id="rect3772"
     style="fill:#000000;fill-opacity:0.99607843;stroke:none" />
  <rect
     width="480"
     height="480"
     rx="45"
     ry="45"
     x="10"
     y="10"
     id="rect2160"
     style="fill:#b3c157;fill-opacity:0.99607843;stroke:none" />
  <rect
     width="447.5094"
     height="447.5094"
     rx="42.619942"
     ry="42.619942"
     x="152.96976"
     y="264.84171"
     transform="matrix(0.93852777,0,0,0.93852777,-103.56637,-208.56129)"
     id="rect2169"
     style="fill:#d2df72;fill-opacity:0.99607843;stroke:none;filter:url(#filter3837)" />
  <path
     d="m 320,410 c 0,16.30378 -31.35999,60 -70,60 -38.64001,0 -70,-43.69622 -70,-60 0,0 31.35999,0.92833 70,0.92833 38.64001,0 70,-0.92833 70,-0.92833 z"
     id="path3142"
     style="fill:#000000;fill-opacity:0.99607843;stroke:none" />
  <g
     transform="translate(-20,170)"
     id="g3786">
    <path
       d="m 250,175 a 75,75 0 1 1 -150,0 75,75 0 1 1 150,0 z"
       transform="matrix(0.86666666,0,0,0.86666667,13.333334,13.333333)"
       id="path3774"
       style="fill:#000000;fill-opacity:0.99607843;fill-rule:evenodd;stroke:none" />
    <path
       d="m 220,165 a 55,55 0 1 0 -110,0 55,55 0 0 0 110,0 z"
       id="path3221"
       style="fill:#fffaa7;fill-opacity:0.99607843;stroke:none" />
    <path
       d="m 200,325 a 25,25 0 1 1 -50,0 25,25 0 1 1 50,0 z"
       transform="translate(-30,-180)"
       id="path3784"
       style="fill:#000000;fill-opacity:0.99607843;fill-rule:evenodd;stroke:none" />
  </g>
  <use
     transform="translate(210,-4.9999994e-7)"
     id="use3791"
     x="0"
     y="0"
     width="500"
     height="500"
     xlink:href="#g3786" />
</svg>
